<svg width="292" height="346" viewBox="0 0 292 346" fill="none" xmlns="http://www.w3.org/2000/svg">
<path d="M30.3483 156.285C26.4813 146.21 23.8188 136.387 19.4733 126.239C7.94275 99.3095 -8.11851 69.7245 5.50974 40.3578C12.6347 24.442 26.1025 12.5501 42.4143 6.64237C85.7523 -8.15124 139.331 3.91395 179.844 21.8006C226.095 42.2198 264.833 77.2346 283.23 124.767C302.069 173.439 288.028 237.774 249.79 273.819C245.592 279.733 228.912 295.323 222.609 298.428C221.651 300.264 212.096 306.225 209.928 307.584C182.175 325.334 151.137 337.323 118.66 342.836C89.0395 347.789 52.2678 348.282 26.6598 330.188C-2.2715 309.746 -8.84749 270.182 12.8245 242.087C15.667 238.403 19.0682 234.785 21.7285 231.091L22.0547 230.63C34.0435 201.011 35.8675 187.67 30.3483 156.285ZM81.4398 209.701C89.182 209.105 101.2 209.576 109.393 209.362C128.407 208.866 139.373 206.1 157.282 200.676C160.213 199.469 163.119 198.202 165.999 196.878C191.995 184.692 208.001 168.521 217.872 141.283C191.322 119.39 141.018 101.838 106.151 104.065C98.7438 104.538 91.3278 106.982 86.4625 112.902C80.2548 120.455 82.6232 129.318 83.59 138.513C88.7935 159.338 89.4363 179.747 82.6713 200.129C81.8665 202.556 79.3998 207.493 79.9653 209.474L81.4398 209.701Z" fill="#F45F5F"/>
</svg>
