<svg width="1536" height="1024" viewBox="0 0 1536 1024" fill="none" xmlns="http://www.w3.org/2000/svg">
<path d="M277.258 493.001C273.391 482.926 270.728 473.103 266.383 462.955C254.852 436.025 238.791 406.44 252.419 377.074C259.544 361.158 273.012 349.266 289.324 343.358C332.662 328.564 386.24 340.63 426.754 358.516C473.005 378.935 511.742 413.95 530.14 461.483C548.978 510.154 534.938 574.489 496.7 610.534C492.501 616.449 475.821 632.038 469.519 635.144C468.56 636.98 459.005 642.941 456.838 644.3C429.084 662.05 398.047 674.039 365.57 679.552C335.949 684.505 299.177 684.997 273.569 666.904C244.638 646.461 238.062 606.898 259.734 578.803C262.577 575.119 265.978 571.501 268.638 567.807L268.964 567.345C280.953 537.727 282.777 524.386 277.258 493.001ZM328.349 546.417C336.092 545.82 348.11 546.292 356.303 546.078C375.317 545.582 386.282 542.816 404.192 537.391C407.123 536.184 410.029 534.918 412.909 533.594C438.905 521.408 454.91 505.237 464.781 477.999C438.232 456.105 387.928 438.553 353.06 440.781C345.653 441.254 338.237 443.698 333.372 449.618C327.164 457.171 329.533 466.034 330.5 475.229C335.703 496.053 336.346 516.463 329.581 536.845C328.776 539.271 326.309 544.209 326.875 546.19L328.349 546.417Z" fill="#F45F5F"/>
<path d="M464.781 477.999C498.083 505.927 519.946 541.7 507.131 586.284C505.749 591.092 496.622 608.119 496.7 610.534C492.501 616.449 475.821 632.038 469.519 635.144C468.56 636.98 459.005 642.941 456.838 644.3C429.084 662.05 398.047 674.039 365.57 679.552C335.949 684.505 299.177 684.997 273.569 666.904C244.638 646.461 238.062 606.898 259.734 578.803C262.577 575.119 265.978 571.501 268.638 567.807L268.964 567.346C284.992 556.702 297.887 548.137 318.148 547.396C320.969 547.292 325.775 547.028 328.349 546.417C336.092 545.821 348.11 546.292 356.303 546.078C375.317 545.582 386.282 542.816 404.192 537.391C407.123 536.184 410.029 534.918 412.909 533.594C438.905 521.408 454.91 505.237 464.781 477.999Z" fill="#F45F5F"/>
<path d="M464.781 477.999C498.082 505.927 519.946 541.7 507.131 586.284C505.749 591.092 496.621 608.119 496.699 610.534C492.501 616.449 475.821 632.038 469.519 635.144C472.303 628.491 485.122 624.691 485.853 617.319C486.362 612.183 465.374 570.027 460.934 562.895C454.645 552.793 446.688 542.47 439.18 533.268C437.566 531.29 435.268 528.324 432.876 527.262C426.252 524.319 412.918 538.537 404.668 537.472C404.509 537.451 404.35 537.418 404.191 537.391C407.122 536.184 410.029 534.918 412.909 533.594C438.904 521.408 454.91 505.237 464.781 477.999Z" fill="#C1364B"/>
<path d="M281.612 519.734C296.733 515.785 314.554 508.567 329.945 504.389C337.284 502.397 327.931 480.828 330.5 475.229C335.703 496.053 336.346 516.463 329.581 536.845C328.776 539.271 326.309 544.209 326.875 546.19L328.349 546.417C325.775 547.028 320.969 547.292 318.148 547.396C297.887 548.137 284.992 556.702 268.964 567.345C280.953 537.727 282.777 524.386 277.258 493.001L278.22 493.72C281.093 498.912 281.593 513.491 281.612 519.734Z" fill="#C9384E"/>
<path d="M616.471 412.477C628.976 411.902 643.277 412.703 655.808 412.361C688.517 411.333 719.931 413.316 745.218 436.871C786.863 475.661 787.575 536.03 750.255 577.462C721.95 604.864 698.94 606.252 662.138 606.169L616.493 606.214C616.127 597.855 616.223 588.955 616.28 580.56C616.663 524.579 615.685 468.441 616.471 412.477ZM644.201 578.997C678.547 579.282 702.536 583.727 729.843 559.158C756.713 527.656 756.578 483.929 724.805 455.196C702.905 435.393 671.685 439.813 644.243 439.844C643.416 484.648 643.511 534.151 644.201 578.997Z" fill="#FEFEFE"/>
<path d="M1025.97 414.306C1034.98 414.236 1043.99 414.256 1053 414.364C1053.82 425.31 1053.48 439.21 1053.49 450.411C1053.51 460.858 1053.84 474.85 1052.96 484.999C1062.08 476.367 1069.84 471.329 1082.33 468.469C1099.45 464.718 1117.35 467.923 1132.09 477.38C1148.33 487.801 1159.7 504.317 1163.63 523.209C1167.88 542.939 1164.04 560.889 1153.07 577.702C1151.05 580.843 1147.84 584.617 1145.23 587.294C1132.24 600.597 1114.45 608.121 1095.87 608.172C1077.41 608.481 1059.62 601.269 1046.59 588.192C1037.41 579.023 1030.96 567.468 1027.99 554.832C1024.9 541.538 1025.97 511.987 1025.99 496.861L1025.97 414.306ZM1100.56 580.674C1124.21 577.902 1141.19 556.558 1138.59 532.881C1135.99 509.203 1114.76 492.066 1091.08 494.507C1067.15 496.972 1049.81 518.455 1052.44 542.367C1055.08 566.28 1076.67 583.474 1100.56 580.674Z" fill="#FEFEFE"/>
<path d="M939.285 467.42C977.82 466.54 1009.88 496.871 1011.14 535.407C1012.39 573.942 982.38 606.298 943.868 607.931C904.823 609.587 871.92 579.061 870.645 539.99C869.378 500.919 900.21 468.313 939.285 467.42ZM946.073 580.783C969.803 577.947 986.798 556.478 984.105 532.724C981.42 508.969 960.068 491.839 936.3 494.377C912.323 496.939 895.013 518.532 897.72 542.498C900.435 566.464 922.125 583.643 946.073 580.783Z" fill="#FEFEFE"/>
<path d="M1247.33 466.95C1281.96 466.976 1308.97 491.982 1314.45 525.516C1315.82 533.832 1315.6 539.994 1315.36 548.364C1306.73 548.95 1293.31 548.338 1284.3 548.445C1258.7 548.747 1232.72 547.969 1207.13 548.688L1207.25 549.25C1213.33 573.979 1234.86 587.018 1260.11 580.338C1268.8 578.042 1274.36 572.914 1280.6 566.815C1284.6 566.844 1289.71 567.504 1293.77 567.914C1297.74 568.679 1304.96 569.175 1309.21 569.598C1299.5 592.293 1276.21 606.63 1251.98 608.082C1234.01 609.33 1216.29 603.294 1202.81 591.33C1157.3 550.629 1180.77 470.097 1247.33 466.95ZM1207.16 526.304C1223.15 526.409 1239.14 526.43 1255.13 526.366C1266.02 526.368 1277.48 526.551 1288.31 526.363C1281.19 503.05 1265.29 490.332 1240.12 493.996C1221.61 497.976 1211.85 508.098 1207.16 526.304Z" fill="#FEFEFE"/>
<path d="M853.77 467.697C857.423 467.329 861.585 467.811 865.29 468.108C865.733 476.048 865.448 486.46 865.448 494.584L863.288 494.549C820.815 494.122 824.145 520.405 824.198 553.565L824.303 606.137L809.063 606.139L797.265 606.067C796.38 584.123 797.55 561.481 797.048 539.486C796.838 530.189 796.965 519.701 799.118 510.709C801.203 501.692 805.5 493.335 811.62 486.394C823.118 473.47 837.023 468.767 853.77 467.697Z" fill="#FEFEFE"/>
</svg>
